<?xml version="1.0" encoding="UTF-8" standalone="no"?>
<!DOCTYPE svg PUBLIC "-//W3C//DTD SVG 1.1//EN"
 "http://www.w3.org/Graphics/SVG/1.1/DTD/svg11.dtd">
<!-- Generated by graphviz version 2.26.3 (20100126.1600)
 -->
<!-- Title: G Pages: 1 -->
<svg width="260pt" height="256pt"
 viewBox="0.00 0.00 260.00 256.00" xmlns="http://www.w3.org/2000/svg" xmlns:xlink="http://www.w3.org/1999/xlink">
<g id="graph1" class="graph" transform="scale(1 1) rotate(0) translate(4 252)">
<title>G</title>
<polygon fill="white" stroke="white" points="-4,5 -4,-252 257,-252 257,5 -4,5"/>
<g id="graph2" class="cluster"><title>cluster_Global</title>
<polyline fill="none" stroke="gray" points="20,-8 232,-8 "/>
<path fill="none" stroke="gray" d="M232,-8C238,-8 244,-14 244,-20"/>
<polyline fill="none" stroke="gray" points="244,-20 244,-228 "/>
<path fill="none" stroke="gray" d="M244,-228C244,-234 238,-240 232,-240"/>
<polyline fill="none" stroke="gray" points="232,-240 20,-240 "/>
<path fill="none" stroke="gray" d="M20,-240C14,-240 8,-234 8,-228"/>
<polyline fill="none" stroke="gray" points="8,-228 8,-20 "/>
<path fill="none" stroke="gray" d="M8,-20C8,-14 14,-8 20,-8"/>
<text text-anchor="middle" x="126" y="-226.1" font-family="Times Roman,serif" font-size="11.00" fill="gray">Global</text>
</g>
<g id="graph3" class="cluster"><title>cluster_\Ektu</title>
<polyline fill="none" stroke="gray" points="28,-16 224,-16 "/>
<path fill="none" stroke="gray" d="M224,-16C230,-16 236,-22 236,-28"/>
<polyline fill="none" stroke="gray" points="236,-28 236,-198 "/>
<path fill="none" stroke="gray" d="M236,-198C236,-204 230,-210 224,-210"/>
<polyline fill="none" stroke="gray" points="224,-210 28,-210 "/>
<path fill="none" stroke="gray" d="M28,-210C22,-210 16,-204 16,-198"/>
<polyline fill="none" stroke="gray" points="16,-198 16,-28 "/>
<path fill="none" stroke="gray" d="M16,-28C16,-22 22,-16 28,-16"/>
<text text-anchor="middle" x="126" y="-196.1" font-family="Times Roman,serif" font-size="11.00" fill="gray">Ektu</text>
</g>
<g id="graph4" class="cluster"><title>cluster_\Ektu\Util</title>
<polyline fill="none" stroke="gray" points="36,-68 216,-68 "/>
<path fill="none" stroke="gray" d="M216,-68C222,-68 228,-74 228,-80"/>
<polyline fill="none" stroke="gray" points="228,-80 228,-168 "/>
<path fill="none" stroke="gray" d="M228,-168C228,-174 222,-180 216,-180"/>
<polyline fill="none" stroke="gray" points="216,-180 36,-180 "/>
<path fill="none" stroke="gray" d="M36,-180C30,-180 24,-174 24,-168"/>
<polyline fill="none" stroke="gray" points="24,-168 24,-80 "/>
<path fill="none" stroke="gray" d="M24,-80C24,-74 30,-68 36,-68"/>
<text text-anchor="middle" x="126" y="-166.1" font-family="Times Roman,serif" font-size="11.00" fill="gray">Util</text>
</g>
<g id="graph5" class="cluster"><title>cluster_\Ektu\Util\Log</title>
<polyline fill="none" stroke="gray" points="162,-76 208,-76 "/>
<path fill="none" stroke="gray" d="M208,-76C214,-76 220,-82 220,-88"/>
<polyline fill="none" stroke="gray" points="220,-88 220,-138 "/>
<path fill="none" stroke="gray" d="M220,-138C220,-144 214,-150 208,-150"/>
<polyline fill="none" stroke="gray" points="208,-150 162,-150 "/>
<path fill="none" stroke="gray" d="M162,-150C156,-150 150,-144 150,-138"/>
<polyline fill="none" stroke="gray" points="150,-138 150,-88 "/>
<path fill="none" stroke="gray" d="M150,-88C150,-82 156,-76 162,-76"/>
<text text-anchor="middle" x="185" y="-136.1" font-family="Times Roman,serif" font-size="11.00" fill="gray">Log</text>
</g>
<!-- \\Ektu\\Util\\Log\\Log -->
<g id="node5" class="node"><title>\\Ektu\\Util\\Log\\Log</title>
<polygon fill="none" stroke="black" points="212,-120 158,-120 158,-84 212,-84 212,-120"/>
<text text-anchor="middle" x="185" y="-99.1" font-family="Times Roman,serif" font-size="11.00">Log</text>
</g>
<!-- \\Ektu\\Util\\Util -->
<g id="node6" class="node"><title>\\Ektu\\Util\\Util</title>
<polygon fill="none" stroke="black" points="86,-120 32,-120 32,-84 86,-84 86,-120"/>
<text text-anchor="middle" x="59" y="-99.1" font-family="Times Roman,serif" font-size="11.00">Util</text>
</g>
<!-- \\Ektu\\Util\\Log\\Log&#45;&gt;\\Ektu\\Util\\Util -->
<g id="edge6" class="edge"><title>\\Ektu\\Util\\Log\\Log&#45;&gt;\\Ektu\\Util\\Util</title>
<path fill="none" stroke="black" d="M157.97,-102C140.072,-102 116.349,-102 96.6161,-102"/>
<polygon fill="none" stroke="black" points="96.4203,-98.5001 86.4202,-102 96.4202,-105.5 96.4203,-98.5001"/>
</g>
<!-- \\Ektu\\Ektu -->
<g id="node7" class="node"><title>\\Ektu\\Ektu</title>
<polygon fill="none" stroke="black" points="212,-60 158,-60 158,-24 212,-24 212,-60"/>
<text text-anchor="middle" x="185" y="-39.1" font-family="Times Roman,serif" font-size="11.00">Ektu</text>
</g>
</g>
</svg>
